<mxfile host="app.diagrams.net" modified="2022-02-09T17:08:02.863Z" agent="5.0 (Windows NT 10.0; Win64; x64) AppleWebKit/537.36 (KHTML, like Gecko) Chrome/97.0.4692.99 Safari/537.36" etag="82ZSNBTiFGjWotOh25v9" version="15.7.1" type="github">
  <diagram id="zkSDBkDoWK4vVrvNhM1e" name="Page-1">
    <mxGraphModel dx="599" dy="1410" grid="1" gridSize="10" guides="1" tooltips="1" connect="1" arrows="1" fold="1" page="1" pageScale="1" pageWidth="850" pageHeight="1100" math="0" shadow="0">
      <root>
        <mxCell id="0" />
        <mxCell id="1" parent="0" />
        <mxCell id="8RHFwjdVYf4FalaLcXXb-1" style="edgeStyle=orthogonalEdgeStyle;rounded=0;orthogonalLoop=1;jettySize=auto;html=1;exitX=0.5;exitY=0;exitDx=0;exitDy=0;exitPerimeter=0;entryX=0.5;entryY=1;entryDx=0;entryDy=0;" parent="1" source="eGsENKpVMlagj22YHVRx-3" target="eGsENKpVMlagj22YHVRx-19" edge="1">
          <mxGeometry relative="1" as="geometry" />
        </mxCell>
        <mxCell id="eGsENKpVMlagj22YHVRx-3" value="" style="fontColor=#0066CC;verticalAlign=top;verticalLabelPosition=bottom;labelPosition=center;align=center;html=1;outlineConnect=0;fillColor=#CCCCCC;strokeColor=#6881B3;gradientColor=none;gradientDirection=north;strokeWidth=2;shape=mxgraph.networks.switch;" parent="1" vertex="1">
          <mxGeometry x="268" y="-31" width="100" height="30" as="geometry" />
        </mxCell>
        <mxCell id="eGsENKpVMlagj22YHVRx-28" style="edgeStyle=orthogonalEdgeStyle;rounded=0;orthogonalLoop=1;jettySize=auto;html=1;endArrow=classic;endFill=1;endSize=4;startArrow=classic;startFill=1;startSize=4;exitX=0;exitY=0.5;exitDx=0;exitDy=0;exitPerimeter=0;" parent="1" edge="1" source="eGsENKpVMlagj22YHVRx-8">
          <mxGeometry relative="1" as="geometry">
            <mxPoint x="277.9999999999998" y="85.17241379310349" as="targetPoint" />
            <mxPoint x="330" y="100" as="sourcePoint" />
            <Array as="points" />
          </mxGeometry>
        </mxCell>
        <mxCell id="eGsENKpVMlagj22YHVRx-8" value="" style="fontColor=#0066CC;verticalAlign=top;verticalLabelPosition=bottom;labelPosition=center;align=center;html=1;outlineConnect=0;fillColor=#CCCCCC;strokeColor=#6881B3;gradientColor=none;gradientDirection=north;strokeWidth=2;shape=mxgraph.networks.switch;" parent="1" vertex="1">
          <mxGeometry x="373" y="70" width="100" height="30" as="geometry" />
        </mxCell>
        <mxCell id="eGsENKpVMlagj22YHVRx-9" value="" style="fontColor=#0066CC;verticalAlign=top;verticalLabelPosition=bottom;labelPosition=center;align=center;html=1;outlineConnect=0;fillColor=#CCCCCC;strokeColor=#6881B3;gradientColor=none;gradientDirection=north;strokeWidth=2;shape=mxgraph.networks.switch;" parent="1" vertex="1">
          <mxGeometry x="177" y="70.4" width="100" height="30" as="geometry" />
        </mxCell>
        <mxCell id="eGsENKpVMlagj22YHVRx-14" value="" style="pointerEvents=1;shadow=0;dashed=0;html=1;strokeColor=#23445d;fillColor=#bac8d3;labelPosition=center;verticalLabelPosition=bottom;verticalAlign=top;align=center;outlineConnect=0;shape=mxgraph.veeam.2d.esx_esxi;aspect=fixed;" parent="1" vertex="1">
          <mxGeometry x="227" y="161.6" width="49.93" height="76.4" as="geometry" />
        </mxCell>
        <mxCell id="8RHFwjdVYf4FalaLcXXb-2" style="edgeStyle=orthogonalEdgeStyle;rounded=0;orthogonalLoop=1;jettySize=auto;html=1;exitX=0.5;exitY=0;exitDx=0;exitDy=0;exitPerimeter=0;entryX=0.5;entryY=1;entryDx=0;entryDy=0;" parent="1" source="eGsENKpVMlagj22YHVRx-15" target="eGsENKpVMlagj22YHVRx-20" edge="1">
          <mxGeometry relative="1" as="geometry" />
        </mxCell>
        <mxCell id="eGsENKpVMlagj22YHVRx-15" value="" style="fontColor=#0066CC;verticalAlign=top;verticalLabelPosition=bottom;labelPosition=center;align=center;html=1;outlineConnect=0;fillColor=#CCCCCC;strokeColor=#6881B3;gradientColor=none;gradientDirection=north;strokeWidth=2;shape=mxgraph.networks.switch;" parent="1" vertex="1">
          <mxGeometry x="769.5699999999999" y="28.200000000000003" width="100" height="30" as="geometry" />
        </mxCell>
        <mxCell id="eGsENKpVMlagj22YHVRx-16" value="" style="endArrow=none;html=1;rounded=0;" parent="1" edge="1">
          <mxGeometry width="50" height="50" relative="1" as="geometry">
            <mxPoint x="595" y="270" as="sourcePoint" />
            <mxPoint x="595" y="-330" as="targetPoint" />
          </mxGeometry>
        </mxCell>
        <mxCell id="8RHFwjdVYf4FalaLcXXb-32" style="edgeStyle=orthogonalEdgeStyle;rounded=0;orthogonalLoop=1;jettySize=auto;html=1;exitX=1;exitY=0.5;exitDx=0;exitDy=0;entryX=0.16;entryY=0.55;entryDx=0;entryDy=0;entryPerimeter=0;fontSize=11;startArrow=classic;startFill=1;endArrow=none;endFill=0;startSize=4;endSize=4;strokeColor=#000000;strokeWidth=2;" parent="1" source="eGsENKpVMlagj22YHVRx-19" target="eGsENKpVMlagj22YHVRx-36" edge="1">
          <mxGeometry relative="1" as="geometry">
            <Array as="points">
              <mxPoint x="569" y="-160" />
              <mxPoint x="569" y="-156" />
            </Array>
          </mxGeometry>
        </mxCell>
        <mxCell id="ukt3D81S2y9U9mqz94qk-6" value="Config Gateway&lt;br&gt;Routage inter-VLAN" style="edgeLabel;html=1;align=center;verticalAlign=middle;resizable=0;points=[];" parent="8RHFwjdVYf4FalaLcXXb-32" vertex="1" connectable="0">
          <mxGeometry x="-0.3254" relative="1" as="geometry">
            <mxPoint x="29" y="-20" as="offset" />
          </mxGeometry>
        </mxCell>
        <mxCell id="eGsENKpVMlagj22YHVRx-19" value="" style="shape=image;verticalLabelPosition=bottom;verticalAlign=top;imageAspect=0;aspect=fixed;image=data:image/png,iVBORw0KGgoAAAANSUhEUgAAAQ0AAAC7CAMAAABIKDvmAAAA21BMVEX////t7vCtsLMwOETx8vT09fcoMT4tNkIrM0D29/mws7YgKjgkLTslLjyztrh9gogbJjUXIzNFTFfo6uvkAAAYJDPd3+ESHzDS1NcAFSkMGy05QUzt9ffCxcjLzdDZ291OVF2lqKyCh42SlptwdXxjaXFUWmO7vsFBSFNTWmOLj5SbnqMAAABzeH9nbXUAAB8ADCQAABoAAA/qtbfqpKbmNzns3+HplZflHSDnYmPnaWsAACDpiYvqrK7lExbpmpvqvL3lKSzs09XmV1jof4DnZmnmTU/mPUDryMpayjgnAAAZxUlEQVR4nOVda5uixrYWqOJicacBhRa5CCIEprMzO9nJyW1nJ+fs//+LTlUJditqg6L2TNaH5JlJ1OKl1lrvutSqyeTOssjD2b1/86NKkBmC4KXWo9fxEcSKPZHDwuvl3x4PqRRljIQg8xyHDPXRy3msLHIkcKJbW7PaFTjOSJePXtHjxMowBIIeziAAYCHoeJPMtUcv6kEiJXOiHgoLAYMFMJGucJyis49e2CNE9RHHiV5iUSyIQKei6pIFj17bvWUWGthgGNkSMq8CQODr+K/nyd/Ku0jaHHtV3VxDwOwJACyPfYzsRo9e4v0k+UQMhBcxB1hQddnyD537m3jbxdZgaA7sYkHxmJk2djXuynn0Sm8vICVe1U4X0pGN0agLVDkMmCIkj17sraV6IV7VZ09jsfW2CTYsAuLWj17vLYVFCglIEuuEkrxRFweHclhdvl5yGhCvKhjpKYOxvz0kzNoxdGL86GXfRJiVjn0FytfnleQNHqAkZFXmpo9e+vhSEiVRUNkXi6261HQ3mV9ZKmid45BMdLX3DcaBumByij9op49+gBHF8bGSCLo5kwZhQfEArEst79cSy0mUXCIhGqIkrwItzSbkNF88+kHGkCkiyS0jOUbD+4k0M0mI51bw0c9yrSw5ndCGqpdXPSUArhWZRDblox/nKrFWcwFvcj84jFUH42HFBlE378slYzByCV9ALLgSCyLScoPVhfOyLzT1sVYIl3TjgV71lAAYkFhOfPkSYzkr3MYZs3GwoHiAxCCbbf6leRdJeyFqzq/HUJJXgQ7JB3Buxjz6AYeISpJbvFFao2LBUHWh5PTlyyk0BL5BaPjqKq96Go8IEXXxv4xMoUWTW7q5uNarnhJo1S4m+rb/BWQKmyg8Gtdg7IsUmITTzVfg0U97XhbECfJIA7dQklcB0pSSU/kjk9PZxqbJrQti1cF4gG0s6H/U1AdYbdfXO7l1nUjLkGA/1z4kOaU1ZV4ubmkw9gRIa4EUGvREevSzH8qCIzTAqEei4T3x2JJT5H6sMrZV05JRGNzeYOwLJqc6ieVWH8d8MPQNKfw7JaObCMmcEjfmfRR1YUPSlGNolye3rsMDlIg2jX2EutzStEVMw/uVjG4j0KKlGiN8tHexqm0jxpka8z1EmoW0C6Z4KDmNxNONGIMFYIEQXuShAYgUspRPjys0bNuS3HgcJQELQ0bZKpkGDpBIk+AwVCBT6TxpGntMKsiqPELDs2AkJQGRjRkLLyPdy0OtVGeONGyjSEFKCg2edn91gRptb/Sn41FPyxS4rQgYFN1W/FCL1lb/LwBwzZFYDt07c8oKMnXyYya3wNTg9kQQFWSEQ9QQx3LU2+b39LYObW90VyPHqpIpcodiVMOMkjSjySZ3dS9vy6TUq4ajx6pg4R5gIbrlUAvddMEo9n16LEtKw5VxvOrBk9T8PhiZdcHuA1JCTjTo5u29LQ2ixSvrqiefY3awOcRqeYkywiVJtWB/d9vMKTUYgp4tb0Q9pYPNgQ31RaU6sCWnvB7fMJYraGWYu12sCpZy609aPGT5ooQzkCLi9mR0q0IDSxsx7OSm2fBiC4ceGrtdgnz1kmIEtDRSaDD8W5T1Z4SGC/atY1WLF+gRN6z6qPW3JO98ya9Ki4wWGqqxsYCpQbuNxqLhJwUmHqLnNLCnzGxhZz60AZx0J0BiSSpIccf1LuX/8Bdr8NAnmE6bUnbTbr4VT73op4FVbGO58cjpwqBedaxGjPce4BVywJTt7nAv/Tocy+k0HTUOObUyTAIEO7zI818pINC3YCjxxW8CSGvaoj1GFwyT0EYMoXPK6C4CY6UJV4Irfh4wiawQanBtoSHSaV31FjS813P4QsM+rvt96JDMqeDV15DTmanfrhGjh4CgifEV7coVYA9Fyvr8S3EpFkxFyL6d3awR412BRasoi6uXAGApUnW5zLuUBv6wzI/S3njpE3CtooxhwaGjIZ7EcsPrcguBGozirnXVAwFq41FQNMobwbEcyZzyYj0Mi+W2rprdoRHjjEhVE6sYy5H2J47lKDmVB5FTm1BPc/rYkhHDNFZD3Iy3QaFVuFhd7CEHgEhooE0ejAVYN4oiH00HklqUdIGBl+hwC9HofwCIoIGqsewn+R5SGhn4dTtFcQ8VBX+VBJx1qWECMXzbAEk1aVm/r7pgw7XIBY4dxbcCRzSMVR1NHUcaUjCymoheDN9YL7IhrGVUrnhdl3kc+19i54GVkPMAutKvLkcUpeB8Oxyj2gxYG38fj5BhZGGSBDMI+mACoiaAReX2/yVFWmuWFCFnIPlNLug1su6/++CsoqmgrM8BIIIGsFZI0cdoXWr5NX7NoizrhiBqlbp+b+VS1uwN3SIbgnHWicYptqyIuyzhlozo4ZYfArBQnb54YHIa9m3RJmhYQArwB/TyavMBosMiGs/rhvnOh5zmQ+IKOFGR+gbWjH0cWhGN0JEYGOS2zfWGg8yCIfxSmb9LTikaeD9NytzXzavLSLvX/EZQeP4zsFUUzvdddLghMKCyrqPdnkOVFXn4T7I2gCFBJ8bqwrnhO7HcFg2o1QDGtqJfmwwFa/vwddrFuf8fawZ4RfAACFKdRWKVrJesv8NDEbfgGf03B20aI6f1xfn51EeLhs8n0jI1fPeKE4tEpHB/cwgnWS4BwplFScp3txMFwtazuGy6GTCV4g8LMPUg+gzAlM6CeTlXp2zQqHwjLBaTCKuLeJV3OSyiCceKuNRnBGWSi9hndLDAmmF4aRxhN/2GukDam/lWhoa7cJs51bnThYYtGmBaqmlqpA5TGIq9uSYVKGnKPhzu6k1RgGqGpSaar9hIOTSVIi8bSKmLtcMc8cxwFu59gE+HLrMp68+rU3W5xoridzDJ/JgrJ05tKPP4cnUBzqHl4Oc069ywqSLz3eM+AymbqjzT5wOden8fuYOThqQLhsRy/AnzsUMDe8dPC3VeqpN1niN0eRwnVdvNgQlDu2wZFRKzKGMfs6mOz2hFXzPSGaoGQKkfWA7RHL5GMguGJ7NgjmZOG01hMdeQpi8bpHmZBRKkGObFvdMWQUM0YqvUd0oj27YudzUDm8r2CQX+vDdzMr0L4CXZEOisiLp4xw4AtXbjGwvrKhPPCyP31tCqXN6rmMu8LSw9ntbq4LKyj/kLIjx2nu4G+4x1s4P48wlREHyrdNRL8C/qsZToVAxF7pLTRlOcAH4TY0vPsEWBQiWaLExfcaMLY7mo3tJaUlM0Oo+AfQbS62LqWFgzdkb3PQ8BFlqVIxzAyW9UDQ1uCNp+Fyg9kvxUDmfBNHuj+JZZVE6MrYczyWZaHi6lSMj1C8/jgB2KGA9/V1PEPgMZfL5KFs6ud9YS2oTo+1+KZbkokyznDdTYH3RJ0ZZpyalgm86xvWFpTD1bfhNJEFvTaRVMDRxraQbvXh3L4SDBJf0POF7Rs6oMqM94/a+LJkaRk16/Q5uQMWlbR1rGubb+4ly6rCaWc7UjaGD/nprSdBlnOAiX4iDg0nk5CTJBcK+O5aBTIKXS1KXV9RlQaxOisyG/QrNhjBWoV/RtAsDqdLgF20UDi7P4hFFwoiUZiIrSoK4YifWxwbmoxeTt7xJqfcJ5topiXuLBrnxPsEkFvZ4ffIMGADW7ViUxw6/QWpgO81LVDMTvFYfRN6ougMUuIfqQ1Oy20CC6K9hBA4MlJf+wlusgtwB0LOtFy/VyskwV/5rpM+cE7jzKIEUZTwBQ5TeFhj00yMtivAQI0ZKEy6GW+5G4nqi+j5SRZyhsxWrAEPKHlXOAVZJCg/6y7KJBjn+snFIqDKzo0pqXrejTRmISQbbNEedrtD/Gjltiu0zgkpBTzgutDhrE9yy/Ua1Y0tYAMkW9zqaAzhHmXW3ssRJS2lBV70LaMI4AGCg88bZH0CBV0aCMpbQCDoCWahKTQdgsZoIjnsog4jTEDBvuMb92uMBtMy9Fo5NSw4HvJylYzr4h48etmgbOgCk5pPtjtgoCtq0csI8t9kmzle77WzTiIxYBMBJKQDwr2TfZJyf2+DEbXnaKgoakOEcXYCWesVJNgZvg9Sj55siMQzBTnRok/3i7TikIfXk+VvfkLmkoDstwjisATDlvE6kUjRU5ssaZm7LDNwFwvlk7+6UhzGZ9X1fGOa8CyiaYF9PXIR537qghufS5n6gsS9GYLH0yzYFL8+4UNwCk+rApjfYBuOlyBHWBeZv84PmybaNdqPdsw8PKP9djdcq2aEwmaxm/IzHfHDmJApZ1Z22YzWJ1GYGcggLtEl+6TxozobNxdfdu3haH156bsgSLVzS28+gFIdx02yOPzaHBHgd7W1e9Wl2gRXvat3iQmmJE/qis7mNFyEGweRipLLuPBlaXlHQRY3Xpx7+xt7VxLHc1OQXSLN/124tGvnW47l08jLRM52LRYrGHxmQSvCCqLqt+FgGzWb+pDFwlOGrKdzXF5t98dYdhQIzmGVqjJF00JhM6BlLc5P1OvmJ7x+F3eb23BSA5rCnePKAFkHXdLHqDRQcNMswMvx8hO6UunSakSJb1I65oqECr3kdDvCj101+kIJ+bicqy59DA3sXTqbrUx/i3sz5cI47lPP70nQ/9V+eYBxXWdxtgrhBoVXMUs1P2PTQwHp+IuoRh0XlE4LysDs0EDv7MHF3bqQ8j+7BTIbzZ5gCg0I1VdIjFcTQm0srjibqYh48IHEORO89NeC3SucUV5sM6WkS7TeoRh+Kcm5VqB4sTaDTeVvSzbL9zgfYjzRfO4XMDq8Dq0tMVHVsg3o78IRqCcAtVIf3Wc79QuxvjNBqTiUoKIKK52bMIFA09iLIOy4Cz0EeXTxiFalUZOi3Tvimi3WBzQEcz9KpjMN5DYzKJXYUTxHBTvmpGgwZrG50LDoCkhjzS1QvVZdvbsiiK3HRthOhOEYSx+TmAkWBkp7A4i8bE0Whsm2U7/g0cj6Kh82nZYRmYnM55N7tiJBqtoZHOp6iu5wZCn8blHNhghF2v2hcNTE4VchOh+YachragLxapXJfzLOioyzLzkXv1sQ5aWbQYdTouGJgLzPn4uMHohQYmpwpRFzMtGosgrfl5EBmVlsiitz50waQezyFjnCM/gzvVz38bk/B2Oj2HxftoTCCZX4/VxWxvJATxLELyau3zXIU6Vz9gcuoqxmbx4IzvoQBpynlmdEZJ+qHRpIJEP22nqkKozuU6CStO48kJn04qaOUrI5DTMQVir8oV72HRC43JZEpmJ/GZ2VoEuMiyEilVoYvZkfyQtPB95JcPOkbaFWjFL6h6R0n6ozGRYtI1xmV5tEvWFQYnFpoZpkjptDNgcqojvf+VSzcVcnuiVx+h4RejMZnMSCZZ5LL2Gjpy5kPUkJmkPJ/CTgoMWLFNyOnDzQdJOszzozT8CjSwt6XzqbO8nYwnBXWliCG7QSn4tjsxQ5rhWE4ZdULYBQKdDBuMPkpCZKrmfdGYTGiTJY7lGotA2+qyzNcSxuC794QAsObRhYNWRhLsVV1jdZp6Hu6MciNyvdHYzgrE6pI1FgGzTzMTUQ04ka/8TvMgXoyuuGnH69xJAJwKXtrPYJCNEdVI5ETUG43JZE3nSIZ560igUxhKDepUqRR90zlpgDeqj+SRpk4OFKyqnn+Ohu9jMY1F0vAUDrs7j5VlTE43YWsRpIWZApfTEp2zp51eW2zEQv0R59Ex6/GEXl61URKfDCQfPoCR0WgqaJNNW3VZM56gJzFnqIbQYRkAlAYmp/cdb01u1nD7K4kapSQe8+pLBroE5EiDaJrtGEXAaDqq9HSzQMJ83SHl0Kp9pA+91+8aLKS17236Kwm7kumByEtnY6kiURcz03beNlvxIgpyXlfn9aFXBZgYY3W5FzmFTur552PVvY0Rc/yVN8GDgvQki1nWhG0ABIqMVEETVMS7Tse7wMiW9VGO274ngClctOqPRWQSg2FfOSRsSYeO5mEatOQ0/lZVlE3Ai65TdMgpZCpfNm4+9gXTcM7L3o1VX5Uklcl40uz6+YLbiz7DUGtSQTAI5oKurjaeo3lZp45KZk/J6KbkFEiLzRCvqmoive98nHsVIpI55bMwaVMfqj9XjXxlaQpWl453kdZYm/zbDbaAS23Oa32VZKoW/rhTwK2KjBrzN6+xXLF2Bc9JMGNl0fTQuwAm9hS7dm7ibck5h10jxvuilplMzsbGY95+FoTkQi4zrNtUEFO5WFNWG26KjBXsxHLLVJSvz5wewQKuTc/sG6sSr4ppuOBuxr5sY0piOTEL23tlpIXvaCjX1oaYJVqHnEoLDsdyF14ee1JIyUhMeivJNPbpQPIbjIaXVi6PNSMN1VZdQKULwjrNM0xDO511AOBYzh5tSvz2F5O5vupPwxMTKwk/v9GdVjNyOzYfhu0BfODErjB1a61EAiq75NRJOVEfLXMKwNRwB3hVHKuS447V7YZ+k9lJOJbLm0YfrA81i5RsHfLcal51uralYGMgLhkj9UHbG8MBNFwjo01s/7YD4ckJIIHLwpacSoGhp6W/Mle8zEndVFDEK8i8vtAAnXouD0huJTnxqvbN70m0MpeS03aeAlbmsJSVtBREbtJ9bhLLifaV5wcBjhCGJLeikBqMu1wkgcmpgNXF1HapoHIucFUachPfTTvPLS1SQ1GumAJNGjG8cIBXralXHWkQ6/uS0DrlZlO2sdyaVyrZ1ya+aEy7ZWzIClcUGqRZNs8HKAlNbiF0xxskABlEKeZm2wWDCSKx4JPaN9ZzrptJZmJd0LNLyClkNBdpA7wqoeHi5SM2LxMyH1/Yy5zWHtaUOlN1wSs63T9kGoaiDx5uAaRSNrL+yS02I8ktPbwvFkTWIqJdMIXU1uX8CaZ+QcYrmld0YjkyDQMJg2I5Mn7KO9uIcaAkK/5mg9/fFVDYmJz65q7QACCZyR/WvsbLqDPNFcBC5/QBY6GlZe2JvZNbOG4nNFzmH3bBm5VtU0F1mxy2tG9V0hAkCojtDvWQlprHu1U/b4u9KkL1gGw49ap2/CgsiETkWkw+C+PGcMJgMedQEZv6lMPP3Ul9BD5S9B6xHJCmvhsOoeEyOdiZPvoa5pKkgvxwM21SQTDSDU0P00AUvMWymwoqFU4334nlAAxoe2NfLFSNI4d+3Q9wSaZVkUpeHqaNRYBWsZIFQ8XeNijlI7FcPM/dszMzoaXNh3jVwqSzltWPcUPmIrRpKqjtxoZMZmNNqcyAFH8ODwHRO2EU9yQ5xbENOtfeeIhFuUH0tr0+cyPvI5HXxHKNI4GszXK8v4x0AVWde4fJnTCC7B8tNGAl8b3ejRgYs0ogXjX8WDfrkhu9RH/T9ocBa2nwxmKR5bJmc50LBqAV20fVBTqrlyFetSAGA+kf4drUPWHINRNYXV5TQfUnbDc2dSyLStDtgglSXTHi/W1D+tiNk/3QR5QkJwNXhDvT8H6yeCF1ysxsLAIOPZclEv0kVXz2U6fAAiTVR+jtLBgc/CmDGjHSbXLr0V71lMQeIaebTRvLwamr8FqYZizCMVu7D57bp2cK5LtZqy5wFs6HNGJoZB6l7n8sg7EnEk0FhWZ7ohg41VxThHrN81nSHOF//u77Fg9pVtuKTrtBsCXxhKGxquLeKAM8lgS5TtUlbpvGgtgV/GmaZiXyYvx3z5+fnn5+VZeFqct8RAYD9m1vZGlyi3pV7WMwjHNS0lguDHexHHazrGGSriCPbI0fnv719NPzTl1gouRGmHubAV6VDG0V7HDM8tnNxEpdkXTB7Fq0rTLS+SxacQb54/e//PPpp1/+2qkLXK7EvH8jxnTbiIGEx92uPFBIy7oghmEbrkIndLME1Ru6N/793Q8//vL06w+77SHF07jvxlCTfHvb3qOfcYhMSSqIC1tyCiCbkSs8id347enppz8+Y3X58fvnrZcBU1brtzNUNlNI59bqi1CSV5GKOc2ctuqC2bjH29SlPP3664/Elv74+7//oPsDsP3QmE63ya3wA8SqQ2VJve2bWM7ZfKJo/PbX01/Yiv70n9+fnn577o1G04iBuPXH9yTHZMERdTHDslWXxdan/Pnzn8+EhH2H1eX7vmjgWFUhJaPi48SqQ4VcCyf4YXvlFf3H90+//usXuiW+/x17l+deaGz7oQXvbhdL30SskBZesuw1XH3+8+nXv/7AFgNbkM/f/bMPGtNprJBY9RaNGPeVWWiTWTDh67gb8Bnzjac/LYzG0//+twcapBGD4+T8i/Kqp2SbCkrN3XCLZ+sz5htPn//A3uX9vaFGtGQ0175oJXkjNTnhkW9eD6I///HPp19//O/PPz/93ztoTNmK3Bdghw8pGd1GZopOU0Fxm+UAzG9P2MP++Nt5K4q9KjlcLhvDDlB8eJl6Cp0FszuA//z959+xh/3hHBrb5Nbda8z3kNW253Szq6U8//EfbEZPo9H0Q3vZ12Iw9oReey+a2evYl+fff/ovOIHGVK1IPzQSP2qi72pZC4imgtjW2z7TuO0YGmpCa8zGB09uXSfk7gvRD9O9WkoXDTWiJSMv/jJDkt7ibA9Ebd7WUg7RwDRcueqU0RckAek55Tf56xmnfTTa5Bb64ml4P4llWtZP2764PTTUJCQlo3n0lSvJq1hVE8ttyekbNJpjiV8PDe8lQUoyp2ZIZ8Hs0MA0nNRV7dEPUHx4iXyZxnKsBBo0SHKLeFX53C1rX6sAjWZOs3Am0SyxWpJYldfjv5WSvIqTb5vo4pLV1OaUUfo38KqnZEq8rZBFS40ktzgkf+Aa8x0EJgiTUzEmM5z5r5uG95KAXOmIsRC8+quNz4bIgsRy+t9cSd4IK4R3rzH/PymUaT09kuJvAAAAAElFTkSuQmCC;rotation=0;" parent="1" vertex="1">
          <mxGeometry x="266.22" y="-196" width="103.57" height="72" as="geometry" />
        </mxCell>
        <mxCell id="eGsENKpVMlagj22YHVRx-20" value="" style="shape=image;verticalLabelPosition=bottom;verticalAlign=top;imageAspect=0;aspect=fixed;image=data:image/png,iVBORw0KGgoAAAANSUhEUgAAAQ0AAAC7CAMAAABIKDvmAAAA21BMVEX////t7vCtsLMwOETx8vT09fcoMT4tNkIrM0D29/mws7YgKjgkLTslLjyztrh9gogbJjUXIzNFTFfo6uvkAAAYJDPd3+ESHzDS1NcAFSkMGy05QUzt9ffCxcjLzdDZ291OVF2lqKyCh42SlptwdXxjaXFUWmO7vsFBSFNTWmOLj5SbnqMAAABzeH9nbXUAAB8ADCQAABoAAA/qtbfqpKbmNzns3+HplZflHSDnYmPnaWsAACDpiYvqrK7lExbpmpvqvL3lKSzs09XmV1jof4DnZmnmTU/mPUDryMpayjgnAAAZxUlEQVR4nOVda5uixrYWqOJicacBhRa5CCIEprMzO9nJyW1nJ+fs//+LTlUJditqg6L2TNaH5JlJ1OKl1lrvutSqyeTOssjD2b1/86NKkBmC4KXWo9fxEcSKPZHDwuvl3x4PqRRljIQg8xyHDPXRy3msLHIkcKJbW7PaFTjOSJePXtHjxMowBIIeziAAYCHoeJPMtUcv6kEiJXOiHgoLAYMFMJGucJyis49e2CNE9RHHiV5iUSyIQKei6pIFj17bvWUWGthgGNkSMq8CQODr+K/nyd/Ku0jaHHtV3VxDwOwJACyPfYzsRo9e4v0k+UQMhBcxB1hQddnyD537m3jbxdZgaA7sYkHxmJk2djXuynn0Sm8vICVe1U4X0pGN0agLVDkMmCIkj17sraV6IV7VZ09jsfW2CTYsAuLWj17vLYVFCglIEuuEkrxRFweHclhdvl5yGhCvKhjpKYOxvz0kzNoxdGL86GXfRJiVjn0FytfnleQNHqAkZFXmpo9e+vhSEiVRUNkXi6261HQ3mV9ZKmid45BMdLX3DcaBumByij9op49+gBHF8bGSCLo5kwZhQfEArEst79cSy0mUXCIhGqIkrwItzSbkNF88+kHGkCkiyS0jOUbD+4k0M0mI51bw0c9yrSw5ndCGqpdXPSUArhWZRDblox/nKrFWcwFvcj84jFUH42HFBlE378slYzByCV9ALLgSCyLScoPVhfOyLzT1sVYIl3TjgV71lAAYkFhOfPkSYzkr3MYZs3GwoHiAxCCbbf6leRdJeyFqzq/HUJJXgQ7JB3Buxjz6AYeISpJbvFFao2LBUHWh5PTlyyk0BL5BaPjqKq96Go8IEXXxv4xMoUWTW7q5uNarnhJo1S4m+rb/BWQKmyg8Gtdg7IsUmITTzVfg0U97XhbECfJIA7dQklcB0pSSU/kjk9PZxqbJrQti1cF4gG0s6H/U1AdYbdfXO7l1nUjLkGA/1z4kOaU1ZV4ubmkw9gRIa4EUGvREevSzH8qCIzTAqEei4T3x2JJT5H6sMrZV05JRGNzeYOwLJqc6ieVWH8d8MPQNKfw7JaObCMmcEjfmfRR1YUPSlGNolye3rsMDlIg2jX2EutzStEVMw/uVjG4j0KKlGiN8tHexqm0jxpka8z1EmoW0C6Z4KDmNxNONGIMFYIEQXuShAYgUspRPjys0bNuS3HgcJQELQ0bZKpkGDpBIk+AwVCBT6TxpGntMKsiqPELDs2AkJQGRjRkLLyPdy0OtVGeONGyjSEFKCg2edn91gRptb/Sn41FPyxS4rQgYFN1W/FCL1lb/LwBwzZFYDt07c8oKMnXyYya3wNTg9kQQFWSEQ9QQx3LU2+b39LYObW90VyPHqpIpcodiVMOMkjSjySZ3dS9vy6TUq4ajx6pg4R5gIbrlUAvddMEo9n16LEtKw5VxvOrBk9T8PhiZdcHuA1JCTjTo5u29LQ2ixSvrqiefY3awOcRqeYkywiVJtWB/d9vMKTUYgp4tb0Q9pYPNgQ31RaU6sCWnvB7fMJYraGWYu12sCpZy609aPGT5ooQzkCLi9mR0q0IDSxsx7OSm2fBiC4ceGrtdgnz1kmIEtDRSaDD8W5T1Z4SGC/atY1WLF+gRN6z6qPW3JO98ya9Ki4wWGqqxsYCpQbuNxqLhJwUmHqLnNLCnzGxhZz60AZx0J0BiSSpIccf1LuX/8Bdr8NAnmE6bUnbTbr4VT73op4FVbGO58cjpwqBedaxGjPce4BVywJTt7nAv/Tocy+k0HTUOObUyTAIEO7zI818pINC3YCjxxW8CSGvaoj1GFwyT0EYMoXPK6C4CY6UJV4Irfh4wiawQanBtoSHSaV31FjS813P4QsM+rvt96JDMqeDV15DTmanfrhGjh4CgifEV7coVYA9Fyvr8S3EpFkxFyL6d3awR412BRasoi6uXAGApUnW5zLuUBv6wzI/S3njpE3CtooxhwaGjIZ7EcsPrcguBGozirnXVAwFq41FQNMobwbEcyZzyYj0Mi+W2rprdoRHjjEhVE6sYy5H2J47lKDmVB5FTm1BPc/rYkhHDNFZD3Iy3QaFVuFhd7CEHgEhooE0ejAVYN4oiH00HklqUdIGBl+hwC9HofwCIoIGqsewn+R5SGhn4dTtFcQ8VBX+VBJx1qWECMXzbAEk1aVm/r7pgw7XIBY4dxbcCRzSMVR1NHUcaUjCymoheDN9YL7IhrGVUrnhdl3kc+19i54GVkPMAutKvLkcUpeB8Oxyj2gxYG38fj5BhZGGSBDMI+mACoiaAReX2/yVFWmuWFCFnIPlNLug1su6/++CsoqmgrM8BIIIGsFZI0cdoXWr5NX7NoizrhiBqlbp+b+VS1uwN3SIbgnHWicYptqyIuyzhlozo4ZYfArBQnb54YHIa9m3RJmhYQArwB/TyavMBosMiGs/rhvnOh5zmQ+IKOFGR+gbWjH0cWhGN0JEYGOS2zfWGg8yCIfxSmb9LTikaeD9NytzXzavLSLvX/EZQeP4zsFUUzvdddLghMKCyrqPdnkOVFXn4T7I2gCFBJ8bqwrnhO7HcFg2o1QDGtqJfmwwFa/vwddrFuf8fawZ4RfAACFKdRWKVrJesv8NDEbfgGf03B20aI6f1xfn51EeLhs8n0jI1fPeKE4tEpHB/cwgnWS4BwplFScp3txMFwtazuGy6GTCV4g8LMPUg+gzAlM6CeTlXp2zQqHwjLBaTCKuLeJV3OSyiCceKuNRnBGWSi9hndLDAmmF4aRxhN/2GukDam/lWhoa7cJs51bnThYYtGmBaqmlqpA5TGIq9uSYVKGnKPhzu6k1RgGqGpSaar9hIOTSVIi8bSKmLtcMc8cxwFu59gE+HLrMp68+rU3W5xoridzDJ/JgrJ05tKPP4cnUBzqHl4Oc069ywqSLz3eM+AymbqjzT5wOden8fuYOThqQLhsRy/AnzsUMDe8dPC3VeqpN1niN0eRwnVdvNgQlDu2wZFRKzKGMfs6mOz2hFXzPSGaoGQKkfWA7RHL5GMguGJ7NgjmZOG01hMdeQpi8bpHmZBRKkGObFvdMWQUM0YqvUd0oj27YudzUDm8r2CQX+vDdzMr0L4CXZEOisiLp4xw4AtXbjGwvrKhPPCyP31tCqXN6rmMu8LSw9ntbq4LKyj/kLIjx2nu4G+4x1s4P48wlREHyrdNRL8C/qsZToVAxF7pLTRlOcAH4TY0vPsEWBQiWaLExfcaMLY7mo3tJaUlM0Oo+AfQbS62LqWFgzdkb3PQ8BFlqVIxzAyW9UDQ1uCNp+Fyg9kvxUDmfBNHuj+JZZVE6MrYczyWZaHi6lSMj1C8/jgB2KGA9/V1PEPgMZfL5KFs6ud9YS2oTo+1+KZbkokyznDdTYH3RJ0ZZpyalgm86xvWFpTD1bfhNJEFvTaRVMDRxraQbvXh3L4SDBJf0POF7Rs6oMqM94/a+LJkaRk16/Q5uQMWlbR1rGubb+4ly6rCaWc7UjaGD/nprSdBlnOAiX4iDg0nk5CTJBcK+O5aBTIKXS1KXV9RlQaxOisyG/QrNhjBWoV/RtAsDqdLgF20UDi7P4hFFwoiUZiIrSoK4YifWxwbmoxeTt7xJqfcJ5topiXuLBrnxPsEkFvZ4ffIMGADW7ViUxw6/QWpgO81LVDMTvFYfRN6ougMUuIfqQ1Oy20CC6K9hBA4MlJf+wlusgtwB0LOtFy/VyskwV/5rpM+cE7jzKIEUZTwBQ5TeFhj00yMtivAQI0ZKEy6GW+5G4nqi+j5SRZyhsxWrAEPKHlXOAVZJCg/6y7KJBjn+snFIqDKzo0pqXrejTRmISQbbNEedrtD/Gjltiu0zgkpBTzgutDhrE9yy/Ua1Y0tYAMkW9zqaAzhHmXW3ssRJS2lBV70LaMI4AGCg88bZH0CBV0aCMpbQCDoCWahKTQdgsZoIjnsog4jTEDBvuMb92uMBtMy9Fo5NSw4HvJylYzr4h48etmgbOgCk5pPtjtgoCtq0csI8t9kmzle77WzTiIxYBMBJKQDwr2TfZJyf2+DEbXnaKgoakOEcXYCWesVJNgZvg9Sj55siMQzBTnRok/3i7TikIfXk+VvfkLmkoDstwjisATDlvE6kUjRU5ssaZm7LDNwFwvlk7+6UhzGZ9X1fGOa8CyiaYF9PXIR537qghufS5n6gsS9GYLH0yzYFL8+4UNwCk+rApjfYBuOlyBHWBeZv84PmybaNdqPdsw8PKP9djdcq2aEwmaxm/IzHfHDmJApZ1Z22YzWJ1GYGcggLtEl+6TxozobNxdfdu3haH156bsgSLVzS28+gFIdx02yOPzaHBHgd7W1e9Wl2gRXvat3iQmmJE/qis7mNFyEGweRipLLuPBlaXlHQRY3Xpx7+xt7VxLHc1OQXSLN/124tGvnW47l08jLRM52LRYrGHxmQSvCCqLqt+FgGzWb+pDFwlOGrKdzXF5t98dYdhQIzmGVqjJF00JhM6BlLc5P1OvmJ7x+F3eb23BSA5rCnePKAFkHXdLHqDRQcNMswMvx8hO6UunSakSJb1I65oqECr3kdDvCj101+kIJ+bicqy59DA3sXTqbrUx/i3sz5cI47lPP70nQ/9V+eYBxXWdxtgrhBoVXMUs1P2PTQwHp+IuoRh0XlE4LysDs0EDv7MHF3bqQ8j+7BTIbzZ5gCg0I1VdIjFcTQm0srjibqYh48IHEORO89NeC3SucUV5sM6WkS7TeoRh+Kcm5VqB4sTaDTeVvSzbL9zgfYjzRfO4XMDq8Dq0tMVHVsg3o78IRqCcAtVIf3Wc79QuxvjNBqTiUoKIKK52bMIFA09iLIOy4Cz0EeXTxiFalUZOi3Tvimi3WBzQEcz9KpjMN5DYzKJXYUTxHBTvmpGgwZrG50LDoCkhjzS1QvVZdvbsiiK3HRthOhOEYSx+TmAkWBkp7A4i8bE0Whsm2U7/g0cj6Kh82nZYRmYnM55N7tiJBqtoZHOp6iu5wZCn8blHNhghF2v2hcNTE4VchOh+YachragLxapXJfzLOioyzLzkXv1sQ5aWbQYdTouGJgLzPn4uMHohQYmpwpRFzMtGosgrfl5EBmVlsiitz50waQezyFjnCM/gzvVz38bk/B2Oj2HxftoTCCZX4/VxWxvJATxLELyau3zXIU6Vz9gcuoqxmbx4IzvoQBpynlmdEZJ+qHRpIJEP22nqkKozuU6CStO48kJn04qaOUrI5DTMQVir8oV72HRC43JZEpmJ/GZ2VoEuMiyEilVoYvZkfyQtPB95JcPOkbaFWjFL6h6R0n6ozGRYtI1xmV5tEvWFQYnFpoZpkjptDNgcqojvf+VSzcVcnuiVx+h4RejMZnMSCZZ5LL2Gjpy5kPUkJmkPJ/CTgoMWLFNyOnDzQdJOszzozT8CjSwt6XzqbO8nYwnBXWliCG7QSn4tjsxQ5rhWE4ZdULYBQKdDBuMPkpCZKrmfdGYTGiTJY7lGotA2+qyzNcSxuC794QAsObRhYNWRhLsVV1jdZp6Hu6MciNyvdHYzgrE6pI1FgGzTzMTUQ04ka/8TvMgXoyuuGnH69xJAJwKXtrPYJCNEdVI5ETUG43JZE3nSIZ560igUxhKDepUqRR90zlpgDeqj+SRpk4OFKyqnn+Ohu9jMY1F0vAUDrs7j5VlTE43YWsRpIWZApfTEp2zp51eW2zEQv0R59Ex6/GEXl61URKfDCQfPoCR0WgqaJNNW3VZM56gJzFnqIbQYRkAlAYmp/cdb01u1nD7K4kapSQe8+pLBroE5EiDaJrtGEXAaDqq9HSzQMJ83SHl0Kp9pA+91+8aLKS17236Kwm7kumByEtnY6kiURcz03beNlvxIgpyXlfn9aFXBZgYY3W5FzmFTur552PVvY0Rc/yVN8GDgvQki1nWhG0ABIqMVEETVMS7Tse7wMiW9VGO274ngClctOqPRWQSg2FfOSRsSYeO5mEatOQ0/lZVlE3Ai65TdMgpZCpfNm4+9gXTcM7L3o1VX5Uklcl40uz6+YLbiz7DUGtSQTAI5oKurjaeo3lZp45KZk/J6KbkFEiLzRCvqmoive98nHsVIpI55bMwaVMfqj9XjXxlaQpWl453kdZYm/zbDbaAS23Oa32VZKoW/rhTwK2KjBrzN6+xXLF2Bc9JMGNl0fTQuwAm9hS7dm7ibck5h10jxvuilplMzsbGY95+FoTkQi4zrNtUEFO5WFNWG26KjBXsxHLLVJSvz5wewQKuTc/sG6sSr4ppuOBuxr5sY0piOTEL23tlpIXvaCjX1oaYJVqHnEoLDsdyF14ee1JIyUhMeivJNPbpQPIbjIaXVi6PNSMN1VZdQKULwjrNM0xDO511AOBYzh5tSvz2F5O5vupPwxMTKwk/v9GdVjNyOzYfhu0BfODErjB1a61EAiq75NRJOVEfLXMKwNRwB3hVHKuS447V7YZ+k9lJOJbLm0YfrA81i5RsHfLcal51uralYGMgLhkj9UHbG8MBNFwjo01s/7YD4ckJIIHLwpacSoGhp6W/Mle8zEndVFDEK8i8vtAAnXouD0huJTnxqvbN70m0MpeS03aeAlbmsJSVtBREbtJ9bhLLifaV5wcBjhCGJLeikBqMu1wkgcmpgNXF1HapoHIucFUachPfTTvPLS1SQ1GumAJNGjG8cIBXralXHWkQ6/uS0DrlZlO2sdyaVyrZ1ya+aEy7ZWzIClcUGqRZNs8HKAlNbiF0xxskABlEKeZm2wWDCSKx4JPaN9ZzrptJZmJd0LNLyClkNBdpA7wqoeHi5SM2LxMyH1/Yy5zWHtaUOlN1wSs63T9kGoaiDx5uAaRSNrL+yS02I8ktPbwvFkTWIqJdMIXU1uX8CaZ+QcYrmld0YjkyDQMJg2I5Mn7KO9uIcaAkK/5mg9/fFVDYmJz65q7QACCZyR/WvsbLqDPNFcBC5/QBY6GlZe2JvZNbOG4nNFzmH3bBm5VtU0F1mxy2tG9V0hAkCojtDvWQlprHu1U/b4u9KkL1gGw49ap2/CgsiETkWkw+C+PGcMJgMedQEZv6lMPP3Ul9BD5S9B6xHJCmvhsOoeEyOdiZPvoa5pKkgvxwM21SQTDSDU0P00AUvMWymwoqFU4334nlAAxoe2NfLFSNI4d+3Q9wSaZVkUpeHqaNRYBWsZIFQ8XeNijlI7FcPM/dszMzoaXNh3jVwqSzltWPcUPmIrRpKqjtxoZMZmNNqcyAFH8ODwHRO2EU9yQ5xbENOtfeeIhFuUH0tr0+cyPvI5HXxHKNI4GszXK8v4x0AVWde4fJnTCC7B8tNGAl8b3ejRgYs0ogXjX8WDfrkhu9RH/T9ocBa2nwxmKR5bJmc50LBqAV20fVBTqrlyFetSAGA+kf4drUPWHINRNYXV5TQfUnbDc2dSyLStDtgglSXTHi/W1D+tiNk/3QR5QkJwNXhDvT8H6yeCF1ysxsLAIOPZclEv0kVXz2U6fAAiTVR+jtLBgc/CmDGjHSbXLr0V71lMQeIaebTRvLwamr8FqYZizCMVu7D57bp2cK5LtZqy5wFs6HNGJoZB6l7n8sg7EnEk0FhWZ7ohg41VxThHrN81nSHOF//u77Fg9pVtuKTrtBsCXxhKGxquLeKAM8lgS5TtUlbpvGgtgV/GmaZiXyYvx3z5+fnn5+VZeFqct8RAYD9m1vZGlyi3pV7WMwjHNS0lguDHexHHazrGGSriCPbI0fnv719NPzTl1gouRGmHubAV6VDG0V7HDM8tnNxEpdkXTB7Fq0rTLS+SxacQb54/e//PPpp1/+2qkLXK7EvH8jxnTbiIGEx92uPFBIy7oghmEbrkIndLME1Ru6N/793Q8//vL06w+77SHF07jvxlCTfHvb3qOfcYhMSSqIC1tyCiCbkSs8id347enppz8+Y3X58fvnrZcBU1brtzNUNlNI59bqi1CSV5GKOc2ctuqC2bjH29SlPP3664/Elv74+7//oPsDsP3QmE63ya3wA8SqQ2VJve2bWM7ZfKJo/PbX01/Yiv70n9+fnn577o1G04iBuPXH9yTHZMERdTHDslWXxdan/Pnzn8+EhH2H1eX7vmjgWFUhJaPi48SqQ4VcCyf4YXvlFf3H90+//usXuiW+/x17l+deaGz7oQXvbhdL30SskBZesuw1XH3+8+nXv/7AFgNbkM/f/bMPGtNprJBY9RaNGPeVWWiTWTDh67gb8Bnzjac/LYzG0//+twcapBGD4+T8i/Kqp2SbCkrN3XCLZ+sz5htPn//A3uX9vaFGtGQ0175oJXkjNTnhkW9eD6I///HPp19//O/PPz/93ztoTNmK3Bdghw8pGd1GZopOU0Fxm+UAzG9P2MP++Nt5K4q9KjlcLhvDDlB8eJl6Cp0FszuA//z959+xh/3hHBrb5Nbda8z3kNW253Szq6U8//EfbEZPo9H0Q3vZ12Iw9oReey+a2evYl+fff/ovOIHGVK1IPzQSP2qi72pZC4imgtjW2z7TuO0YGmpCa8zGB09uXSfk7gvRD9O9WkoXDTWiJSMv/jJDkt7ibA9Ebd7WUg7RwDRcueqU0RckAek55Tf56xmnfTTa5Bb64ml4P4llWtZP2764PTTUJCQlo3n0lSvJq1hVE8ttyekbNJpjiV8PDe8lQUoyp2ZIZ8Hs0MA0nNRV7dEPUHx4iXyZxnKsBBo0SHKLeFX53C1rX6sAjWZOs3Am0SyxWpJYldfjv5WSvIqTb5vo4pLV1OaUUfo38KqnZEq8rZBFS40ktzgkf+Aa8x0EJgiTUzEmM5z5r5uG95KAXOmIsRC8+quNz4bIgsRy+t9cSd4IK4R3rzH/PymUaT09kuJvAAAAAElFTkSuQmCC;rotation=0;" parent="1" vertex="1">
          <mxGeometry x="767" y="-196" width="103.57" height="72" as="geometry" />
        </mxCell>
        <mxCell id="eGsENKpVMlagj22YHVRx-22" value="" style="endArrow=classic;html=1;rounded=0;endFill=1;endSize=4;startSize=4;" parent="1" edge="1">
          <mxGeometry width="50" height="50" relative="1" as="geometry">
            <mxPoint x="220" y="70" as="sourcePoint" />
            <mxPoint x="290" as="targetPoint" />
            <Array as="points">
              <mxPoint x="220" y="40" />
              <mxPoint x="290" y="40" />
            </Array>
          </mxGeometry>
        </mxCell>
        <mxCell id="eGsENKpVMlagj22YHVRx-23" value="" style="endArrow=classic;html=1;rounded=0;endFill=1;endSize=4;" parent="1" edge="1">
          <mxGeometry width="50" height="50" relative="1" as="geometry">
            <mxPoint x="240" y="70" as="sourcePoint" />
            <mxPoint x="300" as="targetPoint" />
            <Array as="points">
              <mxPoint x="240" y="50" />
              <mxPoint x="300" y="50" />
            </Array>
          </mxGeometry>
        </mxCell>
        <mxCell id="eGsENKpVMlagj22YHVRx-24" value="" style="endArrow=classic;html=1;rounded=0;exitX=0.602;exitY=-0.025;exitDx=0;exitDy=0;exitPerimeter=0;endFill=1;endSize=4;" parent="1" edge="1">
          <mxGeometry width="50" height="50" relative="1" as="geometry">
            <mxPoint x="420.1999999999998" y="69.25" as="sourcePoint" />
            <mxPoint x="338" as="targetPoint" />
            <Array as="points">
              <mxPoint x="420" y="40" />
              <mxPoint x="338" y="40" />
            </Array>
          </mxGeometry>
        </mxCell>
        <mxCell id="eGsENKpVMlagj22YHVRx-25" value="" style="endArrow=classic;html=1;rounded=0;endFill=1;endSize=4;" parent="1" edge="1">
          <mxGeometry width="50" height="50" relative="1" as="geometry">
            <mxPoint x="400" y="70" as="sourcePoint" />
            <mxPoint x="328" as="targetPoint" />
            <Array as="points">
              <mxPoint x="400" y="50" />
              <mxPoint x="328" y="50" />
            </Array>
          </mxGeometry>
        </mxCell>
        <mxCell id="eGsENKpVMlagj22YHVRx-26" value="" style="ellipse;whiteSpace=wrap;html=1;fillColor=none;" parent="1" vertex="1">
          <mxGeometry x="275" y="11.2" width="82" height="21" as="geometry" />
        </mxCell>
        <mxCell id="eGsENKpVMlagj22YHVRx-29" value="&lt;span style=&quot;font-size: 10px&quot;&gt;&lt;b&gt;ISL&lt;/b&gt;&lt;/span&gt;" style="text;html=1;strokeColor=none;fillColor=none;align=center;verticalAlign=middle;whiteSpace=wrap;rounded=0;" parent="1" vertex="1">
          <mxGeometry x="306.01" y="64.5" width="29.99" height="19" as="geometry" />
        </mxCell>
        <mxCell id="eGsENKpVMlagj22YHVRx-30" value="&lt;b&gt;&lt;font style=&quot;font-size: 10px&quot;&gt;vPC&lt;/font&gt;&lt;/b&gt;" style="text;html=1;strokeColor=none;fillColor=none;align=center;verticalAlign=middle;whiteSpace=wrap;rounded=0;" parent="1" vertex="1">
          <mxGeometry x="299" y="18" width="29.99" height="14.2" as="geometry" />
        </mxCell>
        <mxCell id="eGsENKpVMlagj22YHVRx-32" value="" style="pointerEvents=1;shadow=0;dashed=0;html=1;strokeColor=#23445d;fillColor=#bac8d3;labelPosition=center;verticalLabelPosition=bottom;verticalAlign=top;align=center;outlineConnect=0;shape=mxgraph.veeam.2d.esx_esxi;aspect=fixed;" parent="1" vertex="1">
          <mxGeometry x="292" y="161.6" width="49.93" height="76.4" as="geometry" />
        </mxCell>
        <mxCell id="eGsENKpVMlagj22YHVRx-33" value="" style="pointerEvents=1;shadow=0;dashed=0;html=1;strokeColor=#23445d;fillColor=#bac8d3;labelPosition=center;verticalLabelPosition=bottom;verticalAlign=top;align=center;outlineConnect=0;shape=mxgraph.veeam.2d.esx_esxi;aspect=fixed;" parent="1" vertex="1">
          <mxGeometry x="357" y="161.6" width="49.93" height="76.4" as="geometry" />
        </mxCell>
        <mxCell id="8RHFwjdVYf4FalaLcXXb-3" style="edgeStyle=orthogonalEdgeStyle;rounded=0;orthogonalLoop=1;jettySize=auto;html=1;" parent="1" source="eGsENKpVMlagj22YHVRx-34" edge="1">
          <mxGeometry relative="1" as="geometry">
            <mxPoint x="786" y="160" as="sourcePoint" />
            <mxPoint x="806" y="60" as="targetPoint" />
            <Array as="points">
              <mxPoint x="786" y="110" />
              <mxPoint x="806" y="110" />
            </Array>
          </mxGeometry>
        </mxCell>
        <mxCell id="eGsENKpVMlagj22YHVRx-34" value="" style="pointerEvents=1;shadow=0;dashed=0;html=1;strokeColor=#23445d;fillColor=#bac8d3;labelPosition=center;verticalLabelPosition=bottom;verticalAlign=top;align=center;outlineConnect=0;shape=mxgraph.veeam.2d.esx_esxi;aspect=fixed;" parent="1" vertex="1">
          <mxGeometry x="762.5699999999999" y="161.6" width="49.93" height="76.4" as="geometry" />
        </mxCell>
        <mxCell id="8RHFwjdVYf4FalaLcXXb-4" style="edgeStyle=orthogonalEdgeStyle;rounded=0;orthogonalLoop=1;jettySize=auto;html=1;startArrow=none;startFill=0;endArrow=classic;endFill=1;startSize=4;endSize=4;" parent="1" source="eGsENKpVMlagj22YHVRx-35" edge="1">
          <mxGeometry relative="1" as="geometry">
            <mxPoint x="836" y="60" as="targetPoint" />
            <Array as="points">
              <mxPoint x="856" y="111" />
              <mxPoint x="836" y="111" />
            </Array>
          </mxGeometry>
        </mxCell>
        <mxCell id="eGsENKpVMlagj22YHVRx-35" value="" style="pointerEvents=1;shadow=0;dashed=0;html=1;strokeColor=#23445d;fillColor=#bac8d3;labelPosition=center;verticalLabelPosition=bottom;verticalAlign=top;align=center;outlineConnect=0;shape=mxgraph.veeam.2d.esx_esxi;aspect=fixed;" parent="1" vertex="1">
          <mxGeometry x="835.9999999999999" y="161.6" width="49.93" height="76.4" as="geometry" />
        </mxCell>
        <mxCell id="8RHFwjdVYf4FalaLcXXb-33" style="edgeStyle=orthogonalEdgeStyle;rounded=0;orthogonalLoop=1;jettySize=auto;html=1;exitX=0.875;exitY=0.5;exitDx=0;exitDy=0;exitPerimeter=0;fontSize=11;startArrow=none;startFill=0;endArrow=classic;endFill=1;startSize=4;endSize=4;strokeColor=#000000;strokeWidth=2;" parent="1" source="eGsENKpVMlagj22YHVRx-36" target="eGsENKpVMlagj22YHVRx-20" edge="1">
          <mxGeometry relative="1" as="geometry" />
        </mxCell>
        <mxCell id="eGsENKpVMlagj22YHVRx-36" value="&lt;b style=&quot;font-size: 15px&quot;&gt;&lt;font style=&quot;font-size: 15px&quot;&gt;WAN&lt;br&gt;100Mb&lt;br&gt;&lt;/font&gt;&lt;/b&gt;" style="ellipse;shape=cloud;whiteSpace=wrap;html=1;fontSize=10;fillColor=#f5f5f5;gradientColor=#b3b3b3;strokeColor=#666666;" parent="1" vertex="1">
          <mxGeometry x="532" y="-200" width="120" height="80" as="geometry" />
        </mxCell>
        <mxCell id="eGsENKpVMlagj22YHVRx-37" value="&lt;b&gt;&lt;font style=&quot;font-size: 21px&quot;&gt;Site Production&amp;nbsp;&lt;/font&gt;&lt;/b&gt;" style="text;html=1;strokeColor=none;fillColor=none;align=center;verticalAlign=middle;whiteSpace=wrap;rounded=0;fontSize=15;" parent="1" vertex="1">
          <mxGeometry x="245" y="-343" width="165" height="30" as="geometry" />
        </mxCell>
        <mxCell id="eGsENKpVMlagj22YHVRx-39" value="&lt;b&gt;&lt;font style=&quot;font-size: 21px&quot;&gt;Site DR&lt;/font&gt;&lt;/b&gt;" style="text;html=1;strokeColor=none;fillColor=none;align=center;verticalAlign=middle;whiteSpace=wrap;rounded=0;fontSize=15;" parent="1" vertex="1">
          <mxGeometry x="752.93" y="-343" width="132" height="30" as="geometry" />
        </mxCell>
        <mxCell id="eGsENKpVMlagj22YHVRx-40" value="" style="shape=flexArrow;endArrow=classic;startArrow=classic;html=1;rounded=0;fontSize=15;width=4.5810055865921795;endSize=2.387096774193548;endWidth=4.8618337380043934;startSize=2.387096774193548;startWidth=4.8618337380043934;fillColor=#0050ef;strokeColor=#001DBC;" parent="1" edge="1">
          <mxGeometry width="100" height="100" relative="1" as="geometry">
            <mxPoint x="537" y="-251" as="sourcePoint" />
            <mxPoint x="647" y="-251" as="targetPoint" />
          </mxGeometry>
        </mxCell>
        <mxCell id="eGsENKpVMlagj22YHVRx-41" value="" style="shape=flexArrow;endArrow=classic;startArrow=classic;html=1;rounded=0;fontSize=15;width=4.357541899441341;endSize=2.575418994413408;endWidth=4.888112106363722;startSize=2.321787709497207;startWidth=4.888112106363722;fillColor=#0050ef;strokeColor=#001DBC;" parent="1" edge="1">
          <mxGeometry width="100" height="100" relative="1" as="geometry">
            <mxPoint x="537" y="-276" as="sourcePoint" />
            <mxPoint x="647" y="-276" as="targetPoint" />
          </mxGeometry>
        </mxCell>
        <mxCell id="eGsENKpVMlagj22YHVRx-42" value="&lt;i&gt;&lt;b&gt;&lt;font style=&quot;font-size: 13px&quot;&gt;VLAN Replication Site PROD&lt;/font&gt;&lt;/b&gt;&lt;/i&gt;" style="text;html=1;strokeColor=none;fillColor=none;align=center;verticalAlign=middle;whiteSpace=wrap;rounded=0;fontSize=15;" parent="1" vertex="1">
          <mxGeometry x="327" y="-291" width="210" height="30" as="geometry" />
        </mxCell>
        <mxCell id="eGsENKpVMlagj22YHVRx-43" value="&lt;i&gt;&lt;b&gt;&lt;font style=&quot;font-size: 13px&quot;&gt;VLAN Replication Site DR&lt;/font&gt;&lt;/b&gt;&lt;/i&gt;" style="text;html=1;strokeColor=none;fillColor=none;align=center;verticalAlign=middle;whiteSpace=wrap;rounded=0;fontSize=15;" parent="1" vertex="1">
          <mxGeometry x="654" y="-291" width="190" height="30" as="geometry" />
        </mxCell>
        <mxCell id="eGsENKpVMlagj22YHVRx-45" value="&lt;i&gt;&lt;font style=&quot;font-size: 13px&quot;&gt;&lt;b&gt;vCenter Server PROD&lt;/b&gt;&lt;/font&gt;&lt;/i&gt;" style="text;html=1;strokeColor=none;fillColor=none;align=center;verticalAlign=middle;whiteSpace=wrap;rounded=0;fontSize=15;" parent="1" vertex="1">
          <mxGeometry x="351" y="-268" width="167" height="30" as="geometry" />
        </mxCell>
        <mxCell id="eGsENKpVMlagj22YHVRx-46" value="&lt;i&gt;&lt;font style=&quot;font-size: 13px&quot;&gt;&lt;b&gt;vCenter Server DR&lt;/b&gt;&lt;/font&gt;&lt;/i&gt;" style="text;html=1;strokeColor=none;fillColor=none;align=center;verticalAlign=middle;whiteSpace=wrap;rounded=0;fontSize=15;" parent="1" vertex="1">
          <mxGeometry x="661" y="-268" width="142" height="30" as="geometry" />
        </mxCell>
        <mxCell id="8RHFwjdVYf4FalaLcXXb-5" value="" style="endArrow=classic;html=1;rounded=0;startSize=4;endSize=4;endFill=1;entryX=0.226;entryY=1.038;entryDx=0;entryDy=0;entryPerimeter=0;" parent="1" target="eGsENKpVMlagj22YHVRx-9" edge="1">
          <mxGeometry width="50" height="50" relative="1" as="geometry">
            <mxPoint x="250" y="160" as="sourcePoint" />
            <mxPoint x="200" y="110" as="targetPoint" />
            <Array as="points">
              <mxPoint x="250" y="150" />
              <mxPoint x="200" y="150" />
            </Array>
          </mxGeometry>
        </mxCell>
        <mxCell id="8RHFwjdVYf4FalaLcXXb-6" value="" style="endArrow=classic;html=1;rounded=0;startSize=4;endSize=4;endFill=1;" parent="1" edge="1">
          <mxGeometry width="50" height="50" relative="1" as="geometry">
            <mxPoint x="370" y="160" as="sourcePoint" />
            <mxPoint x="240" y="102" as="targetPoint" />
            <Array as="points">
              <mxPoint x="370" y="130" />
              <mxPoint x="240" y="130" />
            </Array>
          </mxGeometry>
        </mxCell>
        <mxCell id="8RHFwjdVYf4FalaLcXXb-7" value="" style="endArrow=classic;html=1;rounded=0;startSize=4;endSize=4;endFill=1;" parent="1" edge="1">
          <mxGeometry width="50" height="50" relative="1" as="geometry">
            <mxPoint x="310" y="160" as="sourcePoint" />
            <mxPoint x="220" y="102" as="targetPoint" />
            <Array as="points">
              <mxPoint x="310" y="140" />
              <mxPoint x="220" y="140" />
            </Array>
          </mxGeometry>
        </mxCell>
        <mxCell id="8RHFwjdVYf4FalaLcXXb-8" value="" style="endArrow=classic;html=1;rounded=0;startSize=4;endSize=4;endFill=1;strokeColor=#454545;" parent="1" edge="1">
          <mxGeometry width="50" height="50" relative="1" as="geometry">
            <mxPoint x="390" y="161" as="sourcePoint" />
            <mxPoint x="400" y="102" as="targetPoint" />
            <Array as="points">
              <mxPoint x="390" y="130" />
              <mxPoint x="400" y="130" />
            </Array>
          </mxGeometry>
        </mxCell>
        <mxCell id="8RHFwjdVYf4FalaLcXXb-9" value="" style="endArrow=classic;html=1;rounded=0;startSize=4;endSize=4;endFill=1;strokeColor=#454545;" parent="1" edge="1">
          <mxGeometry width="50" height="50" relative="1" as="geometry">
            <mxPoint x="320" y="160" as="sourcePoint" />
            <mxPoint x="420" y="102" as="targetPoint" />
            <Array as="points">
              <mxPoint x="320" y="140" />
              <mxPoint x="420" y="140" />
            </Array>
          </mxGeometry>
        </mxCell>
        <mxCell id="8RHFwjdVYf4FalaLcXXb-10" value="" style="endArrow=classic;html=1;rounded=0;startSize=4;endSize=4;endFill=1;strokeColor=#454545;" parent="1" edge="1">
          <mxGeometry width="50" height="50" relative="1" as="geometry">
            <mxPoint x="260" y="160" as="sourcePoint" />
            <mxPoint x="440" y="102" as="targetPoint" />
            <Array as="points">
              <mxPoint x="260" y="150" />
              <mxPoint x="440" y="150" />
            </Array>
          </mxGeometry>
        </mxCell>
        <mxCell id="8RHFwjdVYf4FalaLcXXb-11" value="&lt;b&gt;ESXi, Oracle Servers,..&lt;/b&gt;" style="text;html=1;strokeColor=none;fillColor=none;align=center;verticalAlign=middle;whiteSpace=wrap;rounded=0;" parent="1" vertex="1">
          <mxGeometry x="250" y="246" width="140" height="30" as="geometry" />
        </mxCell>
        <mxCell id="8RHFwjdVYf4FalaLcXXb-12" value="Switch L3" style="text;html=1;strokeColor=none;fillColor=none;align=center;verticalAlign=middle;whiteSpace=wrap;rounded=0;labelBorderColor=none;labelBackgroundColor=default;" parent="1" vertex="1">
          <mxGeometry x="287" y="-54" width="60" height="18" as="geometry" />
        </mxCell>
        <mxCell id="8RHFwjdVYf4FalaLcXXb-13" value="Nouveau Switch" style="text;html=1;strokeColor=none;fillColor=none;align=center;verticalAlign=middle;whiteSpace=wrap;rounded=0;labelBorderColor=none;labelBackgroundColor=default;" parent="1" vertex="1">
          <mxGeometry x="177" y="120" width="60" height="20" as="geometry" />
        </mxCell>
        <mxCell id="8RHFwjdVYf4FalaLcXXb-14" value="Nouveau Switch" style="text;html=1;strokeColor=none;fillColor=none;align=center;verticalAlign=middle;whiteSpace=wrap;rounded=0;labelBorderColor=none;labelBackgroundColor=default;" parent="1" vertex="1">
          <mxGeometry x="420" y="120" width="60" height="18" as="geometry" />
        </mxCell>
        <mxCell id="8RHFwjdVYf4FalaLcXXb-16" value="&lt;b&gt;ESXi, Oracle Servers,..&lt;/b&gt;" style="text;html=1;strokeColor=none;fillColor=none;align=center;verticalAlign=middle;whiteSpace=wrap;rounded=0;" parent="1" vertex="1">
          <mxGeometry x="757.5" y="246" width="140" height="30" as="geometry" />
        </mxCell>
        <mxCell id="8RHFwjdVYf4FalaLcXXb-17" value="Nouveau Switch" style="text;html=1;strokeColor=none;fillColor=none;align=center;verticalAlign=middle;whiteSpace=wrap;rounded=0;labelBorderColor=none;labelBackgroundColor=default;" parent="1" vertex="1">
          <mxGeometry x="789.5699999999999" y="82.4" width="60" height="18" as="geometry" />
        </mxCell>
        <mxCell id="ukt3D81S2y9U9mqz94qk-2" value="&lt;b style=&quot;font-size: 10px ; background-color: rgb(255 , 255 , 255)&quot;&gt;VLAN MGT Hardware&lt;br&gt;VLAN Infra VMware&lt;br&gt;VLAN Replication&lt;br&gt;VLAN Backup&lt;br&gt;VLAN vMotion&lt;br&gt;VLANs VMs&lt;br&gt;VLAN DB&lt;/b&gt;" style="text;html=1;strokeColor=none;fillColor=none;align=center;verticalAlign=middle;whiteSpace=wrap;rounded=0;" parent="1" vertex="1">
          <mxGeometry x="62" y="18" width="130" height="110" as="geometry" />
        </mxCell>
        <mxCell id="ukt3D81S2y9U9mqz94qk-3" value="&lt;b style=&quot;font-size: 10px ; background-color: rgb(255 , 255 , 255)&quot;&gt;VLAN MGT Hardware&lt;br&gt;VLAN Infra VMware&lt;br&gt;VLAN Replication&lt;br&gt;VLAN Backup&lt;br&gt;VLANs VMs&lt;br&gt;VLAN DB&lt;/b&gt;" style="text;html=1;strokeColor=none;fillColor=none;align=center;verticalAlign=middle;whiteSpace=wrap;rounded=0;" parent="1" vertex="1">
          <mxGeometry x="150" y="-81.8" width="130" height="110" as="geometry" />
        </mxCell>
        <mxCell id="ukt3D81S2y9U9mqz94qk-4" value="&lt;b style=&quot;font-size: 10px ; background-color: rgb(255 , 255 , 255)&quot;&gt;VLAN MGT Hardware&lt;br&gt;VLAN Infra VMware&lt;br&gt;VLAN Replication&lt;br&gt;VLAN Backup&lt;br&gt;VLAN vMotion&lt;br&gt;VLANs VMs&lt;br&gt;VLAN DB&lt;/b&gt;" style="text;html=1;strokeColor=none;fillColor=none;align=center;verticalAlign=middle;whiteSpace=wrap;rounded=0;" parent="1" vertex="1">
          <mxGeometry x="458" y="22" width="130" height="110" as="geometry" />
        </mxCell>
        <mxCell id="ukt3D81S2y9U9mqz94qk-5" value="&lt;b style=&quot;font-size: 10px ; background-color: rgb(255 , 255 , 255)&quot;&gt;VLAN MGT Hardware&lt;br&gt;VLAN Infra VMware&lt;br&gt;VLAN Replication&lt;br&gt;VLAN Backup&lt;br&gt;VLANs VMs&lt;br&gt;VLAN DB&lt;/b&gt;" style="text;html=1;strokeColor=none;fillColor=none;align=center;verticalAlign=middle;whiteSpace=wrap;rounded=0;" parent="1" vertex="1">
          <mxGeometry x="142" y="-219" width="130" height="110" as="geometry" />
        </mxCell>
        <mxCell id="ukt3D81S2y9U9mqz94qk-7" value="&lt;b style=&quot;font-size: 10px ; background-color: rgb(255 , 255 , 255)&quot;&gt;VLAN MGT Hardware&lt;br&gt;VLAN Infra VMware&lt;br&gt;VLAN Replication&lt;br&gt;VLAN Backup&lt;br&gt;VLAN vMotion&lt;br&gt;VLANs VMs&lt;br&gt;VLAN DB&lt;/b&gt;" style="text;html=1;strokeColor=none;fillColor=none;align=center;verticalAlign=middle;whiteSpace=wrap;rounded=0;" parent="1" vertex="1">
          <mxGeometry x="639" width="130" height="110" as="geometry" />
        </mxCell>
        <mxCell id="ukt3D81S2y9U9mqz94qk-8" value="&lt;b style=&quot;font-size: 10px ; background-color: rgb(255 , 255 , 255)&quot;&gt;VLAN MGT Hardware&lt;br&gt;VLAN Infra VMware&lt;br&gt;VLAN Replication&lt;br&gt;VLAN Backup&lt;br&gt;VLANs VMs&lt;br&gt;VLAN DB&lt;/b&gt;" style="text;html=1;strokeColor=none;fillColor=none;align=center;verticalAlign=middle;whiteSpace=wrap;rounded=0;" parent="1" vertex="1">
          <mxGeometry x="860.5699999999999" y="-211" width="130" height="110" as="geometry" />
        </mxCell>
        <mxCell id="0g1sJVY2cfaZkGYjMp8f-1" value="FW Fortigate&amp;nbsp;" style="text;html=1;strokeColor=none;fillColor=none;align=center;verticalAlign=middle;whiteSpace=wrap;rounded=0;labelBorderColor=none;labelBackgroundColor=default;" vertex="1" parent="1">
          <mxGeometry x="281" y="-219" width="84" height="18" as="geometry" />
        </mxCell>
        <mxCell id="0g1sJVY2cfaZkGYjMp8f-2" value="FW Fortigate&amp;nbsp;" style="text;html=1;strokeColor=none;fillColor=none;align=center;verticalAlign=middle;whiteSpace=wrap;rounded=0;labelBorderColor=none;labelBackgroundColor=default;" vertex="1" parent="1">
          <mxGeometry x="767" y="-218" width="84" height="18" as="geometry" />
        </mxCell>
      </root>
    </mxGraphModel>
  </diagram>
</mxfile>
